<mxfile host="app.diagrams.net" agent="Mozilla/5.0 (Windows NT 10.0; Win64; x64) AppleWebKit/537.36 (KHTML, like Gecko) Chrome/131.0.0.0 Safari/537.36" version="26.0.6">
  <diagram name="Page-1" id="iulSACpIST3pT1euuK36">
    <mxGraphModel dx="398" dy="205" grid="1" gridSize="10" guides="1" tooltips="1" connect="1" arrows="1" fold="1" page="1" pageScale="1" pageWidth="827" pageHeight="1169" math="0" shadow="0">
      <root>
        <mxCell id="0" />
        <mxCell id="1" parent="0" />
        <mxCell id="DBSQP_TxsNy_uTwLgAzg-1" value="Gym Management System" style="ellipse;whiteSpace=wrap;html=1;aspect=fixed;" vertex="1" parent="1">
          <mxGeometry x="310" y="151" width="129" height="129" as="geometry" />
        </mxCell>
        <mxCell id="DBSQP_TxsNy_uTwLgAzg-4" value="Manager" style="rounded=0;whiteSpace=wrap;html=1;" vertex="1" parent="1">
          <mxGeometry x="570" y="40" width="70" height="40" as="geometry" />
        </mxCell>
        <mxCell id="DBSQP_TxsNy_uTwLgAzg-6" value="Trainer" style="rounded=0;whiteSpace=wrap;html=1;" vertex="1" parent="1">
          <mxGeometry x="120" y="45" width="70" height="30" as="geometry" />
        </mxCell>
        <mxCell id="DBSQP_TxsNy_uTwLgAzg-7" value="" style="endArrow=classic;html=1;rounded=0;entryX=0;entryY=0.25;entryDx=0;entryDy=0;exitX=0.418;exitY=0.012;exitDx=0;exitDy=0;exitPerimeter=0;" edge="1" parent="1" source="DBSQP_TxsNy_uTwLgAzg-1" target="DBSQP_TxsNy_uTwLgAzg-4">
          <mxGeometry width="50" height="50" relative="1" as="geometry">
            <mxPoint x="364" y="150" as="sourcePoint" />
            <mxPoint x="540" y="110" as="targetPoint" />
            <Array as="points">
              <mxPoint x="362" y="50" />
            </Array>
          </mxGeometry>
        </mxCell>
        <mxCell id="DBSQP_TxsNy_uTwLgAzg-9" value="" style="endArrow=classic;html=1;rounded=0;exitX=0;exitY=0.75;exitDx=0;exitDy=0;" edge="1" parent="1" source="DBSQP_TxsNy_uTwLgAzg-4">
          <mxGeometry width="50" height="50" relative="1" as="geometry">
            <mxPoint x="530" y="230" as="sourcePoint" />
            <mxPoint x="390" y="150" as="targetPoint" />
            <Array as="points">
              <mxPoint x="390" y="70" />
            </Array>
          </mxGeometry>
        </mxCell>
        <mxCell id="DBSQP_TxsNy_uTwLgAzg-10" value="" style="endArrow=classic;html=1;rounded=0;exitX=0.25;exitY=1;exitDx=0;exitDy=0;entryX=0.918;entryY=0.229;entryDx=0;entryDy=0;entryPerimeter=0;" edge="1" parent="1" source="DBSQP_TxsNy_uTwLgAzg-4" target="DBSQP_TxsNy_uTwLgAzg-1">
          <mxGeometry width="50" height="50" relative="1" as="geometry">
            <mxPoint x="440" y="330" as="sourcePoint" />
            <mxPoint x="450" y="196" as="targetPoint" />
            <Array as="points">
              <mxPoint x="588" y="181" />
            </Array>
          </mxGeometry>
        </mxCell>
        <mxCell id="DBSQP_TxsNy_uTwLgAzg-11" value="" style="endArrow=classic;html=1;rounded=0;exitX=0.571;exitY=1;exitDx=0;exitDy=0;exitPerimeter=0;" edge="1" parent="1" source="DBSQP_TxsNy_uTwLgAzg-4">
          <mxGeometry width="50" height="50" relative="1" as="geometry">
            <mxPoint x="591" y="100" as="sourcePoint" />
            <mxPoint x="440" y="212" as="targetPoint" />
            <Array as="points">
              <mxPoint x="610" y="210" />
            </Array>
          </mxGeometry>
        </mxCell>
        <mxCell id="DBSQP_TxsNy_uTwLgAzg-12" value="" style="endArrow=classic;html=1;rounded=0;" edge="1" parent="1">
          <mxGeometry width="50" height="50" relative="1" as="geometry">
            <mxPoint x="630" y="82" as="sourcePoint" />
            <mxPoint x="440" y="240" as="targetPoint" />
            <Array as="points">
              <mxPoint x="630" y="240" />
            </Array>
          </mxGeometry>
        </mxCell>
        <mxCell id="DBSQP_TxsNy_uTwLgAzg-17" value="Member" style="rounded=0;whiteSpace=wrap;html=1;" vertex="1" parent="1">
          <mxGeometry x="110" y="360" width="70" height="30" as="geometry" />
        </mxCell>
        <mxCell id="DBSQP_TxsNy_uTwLgAzg-18" value="" style="endArrow=classic;html=1;rounded=0;entryX=0.018;entryY=0.705;entryDx=0;entryDy=0;entryPerimeter=0;exitX=0.695;exitY=0.073;exitDx=0;exitDy=0;exitPerimeter=0;" edge="1" parent="1" source="DBSQP_TxsNy_uTwLgAzg-17" target="DBSQP_TxsNy_uTwLgAzg-1">
          <mxGeometry width="50" height="50" relative="1" as="geometry">
            <mxPoint x="150" y="350" as="sourcePoint" />
            <mxPoint x="190" y="290" as="targetPoint" />
            <Array as="points">
              <mxPoint x="160" y="242" />
            </Array>
          </mxGeometry>
        </mxCell>
        <mxCell id="DBSQP_TxsNy_uTwLgAzg-19" value="" style="endArrow=classic;html=1;rounded=0;exitX=0.25;exitY=0;exitDx=0;exitDy=0;entryX=0;entryY=0.5;entryDx=0;entryDy=0;" edge="1" parent="1" source="DBSQP_TxsNy_uTwLgAzg-17" target="DBSQP_TxsNy_uTwLgAzg-1">
          <mxGeometry width="50" height="50" relative="1" as="geometry">
            <mxPoint x="120" y="330" as="sourcePoint" />
            <mxPoint x="170" y="280" as="targetPoint" />
            <Array as="points">
              <mxPoint x="128" y="220" />
            </Array>
          </mxGeometry>
        </mxCell>
        <mxCell id="DBSQP_TxsNy_uTwLgAzg-20" value="" style="endArrow=classic;html=1;rounded=0;exitX=1.016;exitY=0.337;exitDx=0;exitDy=0;exitPerimeter=0;entryX=0.352;entryY=0.999;entryDx=0;entryDy=0;entryPerimeter=0;" edge="1" parent="1" source="DBSQP_TxsNy_uTwLgAzg-17" target="DBSQP_TxsNy_uTwLgAzg-1">
          <mxGeometry width="50" height="50" relative="1" as="geometry">
            <mxPoint x="430" y="450" as="sourcePoint" />
            <mxPoint x="480" y="400" as="targetPoint" />
            <Array as="points">
              <mxPoint x="355" y="370" />
            </Array>
          </mxGeometry>
        </mxCell>
        <mxCell id="DBSQP_TxsNy_uTwLgAzg-21" value="" style="endArrow=classic;html=1;rounded=0;exitX=0.557;exitY=1.02;exitDx=0;exitDy=0;exitPerimeter=0;entryX=1.031;entryY=0.856;entryDx=0;entryDy=0;entryPerimeter=0;" edge="1" parent="1" source="DBSQP_TxsNy_uTwLgAzg-1" target="DBSQP_TxsNy_uTwLgAzg-17">
          <mxGeometry width="50" height="50" relative="1" as="geometry">
            <mxPoint x="320" y="460" as="sourcePoint" />
            <mxPoint x="370" y="410" as="targetPoint" />
            <Array as="points">
              <mxPoint x="380" y="386" />
            </Array>
          </mxGeometry>
        </mxCell>
        <mxCell id="DBSQP_TxsNy_uTwLgAzg-22" value="" style="endArrow=classic;html=1;rounded=0;exitX=0.12;exitY=0.961;exitDx=0;exitDy=0;exitPerimeter=0;entryX=0.021;entryY=0.35;entryDx=0;entryDy=0;entryPerimeter=0;" edge="1" parent="1" source="DBSQP_TxsNy_uTwLgAzg-6" target="DBSQP_TxsNy_uTwLgAzg-1">
          <mxGeometry width="50" height="50" relative="1" as="geometry">
            <mxPoint x="120" y="110" as="sourcePoint" />
            <mxPoint x="325.37" y="187.13" as="targetPoint" />
            <Array as="points">
              <mxPoint x="128" y="196" />
            </Array>
          </mxGeometry>
        </mxCell>
        <mxCell id="DBSQP_TxsNy_uTwLgAzg-23" value="" style="endArrow=classic;html=1;rounded=0;entryX=0.065;entryY=0.24;entryDx=0;entryDy=0;entryPerimeter=0;" edge="1" parent="1" target="DBSQP_TxsNy_uTwLgAzg-1">
          <mxGeometry width="50" height="50" relative="1" as="geometry">
            <mxPoint x="160" y="80" as="sourcePoint" />
            <mxPoint x="240" y="150" as="targetPoint" />
            <Array as="points">
              <mxPoint x="160" y="180" />
            </Array>
          </mxGeometry>
        </mxCell>
        <mxCell id="DBSQP_TxsNy_uTwLgAzg-24" value="" style="endArrow=classic;html=1;rounded=0;entryX=0.978;entryY=0.358;entryDx=0;entryDy=0;entryPerimeter=0;exitX=0.307;exitY=0.042;exitDx=0;exitDy=0;exitPerimeter=0;" edge="1" parent="1" source="DBSQP_TxsNy_uTwLgAzg-1" target="DBSQP_TxsNy_uTwLgAzg-6">
          <mxGeometry width="50" height="50" relative="1" as="geometry">
            <mxPoint x="350" y="150" as="sourcePoint" />
            <mxPoint x="270" y="90" as="targetPoint" />
            <Array as="points">
              <mxPoint x="350" y="56" />
            </Array>
          </mxGeometry>
        </mxCell>
        <mxCell id="DBSQP_TxsNy_uTwLgAzg-25" value="" style="endArrow=classic;html=1;rounded=0;entryX=1.005;entryY=0.866;entryDx=0;entryDy=0;entryPerimeter=0;exitX=0;exitY=0;exitDx=0;exitDy=0;" edge="1" parent="1" source="DBSQP_TxsNy_uTwLgAzg-1" target="DBSQP_TxsNy_uTwLgAzg-6">
          <mxGeometry width="50" height="50" relative="1" as="geometry">
            <mxPoint x="240" y="151" as="sourcePoint" />
            <mxPoint x="290" y="101" as="targetPoint" />
            <Array as="points">
              <mxPoint x="330" y="71" />
            </Array>
          </mxGeometry>
        </mxCell>
        <mxCell id="DBSQP_TxsNy_uTwLgAzg-26" value="Display Deatils" style="text;html=1;align=center;verticalAlign=middle;whiteSpace=wrap;rounded=0;" vertex="1" parent="1">
          <mxGeometry x="400" y="20" width="120" height="30" as="geometry" />
        </mxCell>
        <mxCell id="DBSQP_TxsNy_uTwLgAzg-27" value="Manage Details" style="text;html=1;align=center;verticalAlign=middle;whiteSpace=wrap;rounded=0;" vertex="1" parent="1">
          <mxGeometry x="410" y="70" width="120" height="30" as="geometry" />
        </mxCell>
        <mxCell id="DBSQP_TxsNy_uTwLgAzg-28" value="Trainer Status" style="text;html=1;align=center;verticalAlign=middle;whiteSpace=wrap;rounded=0;" vertex="1" parent="1">
          <mxGeometry x="450" y="160" width="120" height="30" as="geometry" />
        </mxCell>
        <mxCell id="DBSQP_TxsNy_uTwLgAzg-30" value="Assign Trainer" style="text;html=1;align=center;verticalAlign=middle;whiteSpace=wrap;rounded=0;" vertex="1" parent="1">
          <mxGeometry x="460" y="190" width="120" height="30" as="geometry" />
        </mxCell>
        <mxCell id="DBSQP_TxsNy_uTwLgAzg-31" value="Pay Salary" style="text;html=1;align=center;verticalAlign=middle;whiteSpace=wrap;rounded=0;" vertex="1" parent="1">
          <mxGeometry x="470" y="217" width="120" height="30" as="geometry" />
        </mxCell>
        <mxCell id="DBSQP_TxsNy_uTwLgAzg-32" value="Pay Fee" style="text;html=1;align=center;verticalAlign=middle;whiteSpace=wrap;rounded=0;" vertex="1" parent="1">
          <mxGeometry x="200" y="344" width="120" height="30" as="geometry" />
        </mxCell>
        <mxCell id="DBSQP_TxsNy_uTwLgAzg-33" value="Payment Status" style="text;html=1;align=center;verticalAlign=middle;whiteSpace=wrap;rounded=0;" vertex="1" parent="1">
          <mxGeometry x="210" y="380" width="120" height="30" as="geometry" />
        </mxCell>
        <mxCell id="DBSQP_TxsNy_uTwLgAzg-34" value="Manage Profile" style="text;html=1;align=center;verticalAlign=middle;whiteSpace=wrap;rounded=0;rotation=-90;" vertex="1" parent="1">
          <mxGeometry x="60" y="280" width="120" height="30" as="geometry" />
        </mxCell>
        <mxCell id="DBSQP_TxsNy_uTwLgAzg-35" value="View Exercise" style="text;html=1;align=center;verticalAlign=middle;whiteSpace=wrap;rounded=0;rotation=-90;" vertex="1" parent="1">
          <mxGeometry x="90" y="290" width="120" height="30" as="geometry" />
        </mxCell>
        <mxCell id="DBSQP_TxsNy_uTwLgAzg-36" value="Manage DIET Plan" style="text;html=1;align=center;verticalAlign=middle;whiteSpace=wrap;rounded=0;rotation=-90;" vertex="1" parent="1">
          <mxGeometry x="60" y="121" width="120" height="30" as="geometry" />
        </mxCell>
        <mxCell id="DBSQP_TxsNy_uTwLgAzg-37" value="Manage Workout" style="text;html=1;align=center;verticalAlign=middle;whiteSpace=wrap;rounded=0;rotation=-90;" vertex="1" parent="1">
          <mxGeometry x="90" y="110" width="120" height="30" as="geometry" />
        </mxCell>
        <mxCell id="DBSQP_TxsNy_uTwLgAzg-38" value="View Profile History" style="text;html=1;align=center;verticalAlign=middle;whiteSpace=wrap;rounded=0;" vertex="1" parent="1">
          <mxGeometry x="200" y="30" width="120" height="30" as="geometry" />
        </mxCell>
        <mxCell id="DBSQP_TxsNy_uTwLgAzg-39" value="View Member" style="text;html=1;align=center;verticalAlign=middle;whiteSpace=wrap;rounded=0;" vertex="1" parent="1">
          <mxGeometry x="200" y="64" width="120" height="30" as="geometry" />
        </mxCell>
      </root>
    </mxGraphModel>
  </diagram>
</mxfile>
